<svg xmlns="http://www.w3.org/2000/svg" width="260.032" height="259.88" viewBox="0 0 260.032 259.88">
  <defs>
    <style>
      .cls-1 {
		fill: #1b6ea9;
        fill-rule: evenodd;
      }
    </style>
  </defs>
  <path id="Forma_1" data-name="Forma 1" class="cls-1" d="M536.733,1331.28l-18.2,18.19,58.508,58.47,130.016-129.93-18.2-18.2L577.039,1371.56Zm157.322,24.69c0,57.17-46.807,103.95-104.014,103.95s-104.016-46.78-104.016-103.95,46.807-103.95,104.016-103.95a101.407,101.407,0,0,1,28.6,3.9l20.8-20.79c-15.6-5.2-32.5-9.1-49.406-9.1-71.51,0-130.018,58.48-130.018,129.94s58.508,129.94,130.018,129.94,130.017-58.47,130.017-129.94h-26Z" transform="translate(-460.031 -1226.03)"/>
</svg>
