<svg xmlns="http://www.w3.org/2000/svg" width="134.969" height="143" viewBox="0 0 134.969 143">
  <defs>
    <style>
      .cls-1 {
  
        fill-rule: evenodd;
      }
    </style>
  </defs>
  <path class="cls-1" d="M520.945,2096.21a18.08,18.08,0,0,0,4.036-11.87,18.584,18.584,0,0,0-3.777-10.29c1.889-4.84,2.614-12.47-3.687-18.39-4.618-4.33-12.458-6.28-23.32-5.74a88.384,88.384,0,0,0-14.288,1.89H479.88c-1.453.26-2.991,0.6-4.56,0.95-0.116-1.91.2-6.67,3.63-17.37,4.066-12.74,3.834-22.49-.755-29.01-4.821-6.84-12.516-7.38-14.782-7.38a7.189,7.189,0,0,0-5.605,2.63c-3.223,3.85-2.845,10.97-2.439,14.26-3.834,10.59-14.579,36.54-23.668,43.75a3.041,3.041,0,0,0-.464.42,32.2,32.2,0,0,0-5.693,8.79,11.783,11.783,0,0,0-5.749-1.49H402.08A12.271,12.271,0,0,0,390,2079.8v48.59a12.271,12.271,0,0,0,12.081,12.44H419.8a11.853,11.853,0,0,0,6.969-2.27l6.824,0.83a285.008,285.008,0,0,0,38.711,2.19c3.457,0.27,6.709.41,9.729,0.41a63.193,63.193,0,0,0,13.5-1.25c8.886-1.94,14.956-5.83,18.034-11.54a18.8,18.8,0,0,0,1.975-11.46,19.345,19.345,0,0,0,6.592-15.51A20.8,20.8,0,0,0,520.945,2096.21ZM402.08,2132.75a4.306,4.306,0,0,1-4.241-4.36v-48.62a4.308,4.308,0,0,1,4.241-4.37H419.8a4.309,4.309,0,0,1,4.239,4.37v48.59a4.306,4.306,0,0,1-4.239,4.36H402.08v0.03Zm111.429-40.03a4.1,4.1,0,0,0-.523,4.87,12.659,12.659,0,0,1,1.336,4.99c0.2,3.92-1.626,7.39-5.459,10.35a4.144,4.144,0,0,0-1.336,4.6,10.864,10.864,0,0,1-.783,7.72c-1.948,3.59-6.274,6.16-12.839,7.59-5.254,1.17-12.4,1.38-21.169.66h-0.407a278.529,278.529,0,0,1-37.753-2.12h-0.029l-2.932-.36a13.106,13.106,0,0,0,.261-2.63v-48.62a12.972,12.972,0,0,0-.552-3.71,25.208,25.208,0,0,1,5.4-10.26c13.038-10.64,25.788-46.56,26.341-48.11a3.932,3.932,0,0,0,.174-2.01c-0.494-3.35-.321-7.44.378-8.67,1.538,0.03,5.692.48,8.189,4.04,2.961,4.21,2.846,11.75-.349,21.74-4.878,15.22-5.286,23.23-1.422,26.76a6.213,6.213,0,0,0,6.33,1.17c1.771-.42,3.456-0.78,5.054-1.05,0.115-.03.261-0.06,0.377-0.09,8.915-2,24.888-3.23,30.435,1.97,4.7,4.43,1.365,10.29.987,10.92a4.078,4.078,0,0,0,.7,5.2,11.446,11.446,0,0,1,3.222,6.97C517.256,2087.3,516.036,2090.02,513.509,2092.72Z" transform="translate(-390 -1999)"/>
</svg>
