<svg xmlns="http://www.w3.org/2000/svg" width="39" height="39" viewBox="0 0 39 39">
  <defs>
    <style>
      .cls-1 {
        fill-rule: evenodd;
      }
    </style>
  </defs>
  <path id="Forma_1" data-name="Forma 1" class="cls-1" d="M1332.1,59.673a5.586,5.586,0,1,0,5.45,5.584A5.53,5.53,0,0,0,1332.1,59.673Zm0,9.507a3.924,3.924,0,1,1,3.83-3.922A3.883,3.883,0,0,1,1332.1,69.179Zm19.81-17.323c0.15-.494,3-7.483-15.06-13.926A33.409,33.409,0,0,0,1325.75,36c-4.87,0-8.11,1.437-8.88,3.943l-0.74,2.385a2.623,2.623,0,0,0,1.59,3.311s5.8,2.025,6.22,1.9h0a2.589,2.589,0,0,0,2.44-1.885c0.55-1.773,2.67-2.918,5.41-2.918a11.1,11.1,0,0,1,3.41.557,10.159,10.159,0,0,1,4.85,3.213,4.311,4.311,0,0,1,1.02,3.916,2.631,2.631,0,0,0,1.59,3.311s5.68,1.859,5.92,1.88a2.62,2.62,0,0,0,2.77-1.97,8.435,8.435,0,0,1-2.91,13.11,5.479,5.479,0,0,1-1.16.357,7.559,7.559,0,0,0-1.76-4.686l-9.22-8.891V50.964h-1.63v2.1h-5.14v-2.1h-1.63v2.569s-7.39,7.011-9.17,8.827a7.71,7.71,0,0,0-1.82,5.161A7.4,7.4,0,0,0,1324.22,75h15.76a7.375,7.375,0,0,0,7.2-6.2,6.764,6.764,0,0,0,1.89-.522,10.257,10.257,0,0,0,5.8-7.761A9.888,9.888,0,0,0,1351.91,51.857Zm-3.26,2.077-5.5-1.786a0.958,0.958,0,0,1-.53-1.224,5.941,5.941,0,0,0-1.31-5.459,11.692,11.692,0,0,0-5.62-3.757,12.619,12.619,0,0,0-3.9-.636c-3.46,0-6.19,1.6-6.96,4.078a0.979,0.979,0,0,1-.89.725c-0.08,0-5.73-1.822-5.73-1.822a0.95,0.95,0,0,1-.53-1.225l0.73-2.385c0.54-1.743,3.29-2.783,7.34-2.783a35.1,35.1,0,0,1,10.61,1.854c9.46,3.069,15.05,8.442,14.15,11.346l-0.74,2.385A0.929,0.929,0,0,1,1348.65,53.934Zm-2.99,13.587a5.758,5.758,0,0,1-5.68,5.817h-15.76a5.758,5.758,0,0,1-5.68-5.817,6.078,6.078,0,0,1,1.34-3.982l9.16-8.816h6.12l9.16,8.816A6.323,6.323,0,0,1,1345.66,67.521Z" transform="translate(-1316 -36)"/>
</svg>
