<svg xmlns="http://www.w3.org/2000/svg" width="198" height="154.87" viewBox="0 0 198 154.87">
  <defs>
    <style>
      .cls-1 {
        fill-rule: evenodd;
      }
    </style>
  </defs>
  <path id="Shape_1_copy" data-name="Shape 1 copy" class="cls-1" d="M588.074,2321.51l-26.221-82.28a23.111,23.111,0,0,0-28.738-15.12,5.4,5.4,0,0,0-3.654,6.74,5.487,5.487,0,0,0,6.819,3.61,12.092,12.092,0,0,1,15.059,7.94v0.04l18.752,58.93a41.181,41.181,0,0,0-60.885,30.65h-34.5a40.916,40.916,0,0,0-40.671-35.14,41.385,41.385,0,0,0-20.214,5.25l19-59.69v-0.04a12.091,12.091,0,0,1,15.058-7.94,5.471,5.471,0,0,0,6.821-3.61,5.382,5.382,0,0,0-3.654-6.74,23.128,23.128,0,0,0-28.738,15.12l-26.139,82.36a4.3,4.3,0,0,0-.163.68,40.327,40.327,0,0,0-3,15.17c0,22.34,18.429,40.55,41.037,40.55a40.916,40.916,0,0,0,40.671-35.14h34.7a40.955,40.955,0,0,0,40.551,34.42c22.608,0,41.035-18.21,41.035-40.55A39.546,39.546,0,0,0,588.074,2321.51Zm-154,45.65a29.727,29.727,0,1,1,30.079-29.72A29.908,29.908,0,0,1,434.073,2367.16ZM550,2366.44a29.727,29.727,0,1,1,30.078-29.72A29.915,29.915,0,0,1,550,2366.44Z" transform="translate(-393 -2223.13)"/>
</svg>
