<svg xmlns="http://www.w3.org/2000/svg" width="149" height="149" viewBox="0 0 149 149">
  <defs>
    <style>
      .cls-1 {
        fill-rule: evenodd;
      }
    </style>
  </defs>
  <path id="Shape_1_copy_13" data-name="Shape 1 copy 13" class="cls-1" d="M521.179,2504.83a74.5,74.5,0,0,0-110.309,99.9c-3.34,6.83-7.273,11.39-11.737,13.57a6.946,6.946,0,0,0,2,13.1,35.389,35.389,0,0,0,5.275.41h0a48.221,48.221,0,0,0,26.781-8.67A74.516,74.516,0,0,0,521.179,2504.83Zm-5.961,99.37a66.148,66.148,0,0,1-80.188,10.26,4.214,4.214,0,0,0-4.715.28,40.077,40.077,0,0,1-23.379,8.58c5.026-3.74,9.24-9.55,12.767-17.63a4.239,4.239,0,0,0-.717-4.49A66.073,66.073,0,1,1,515.218,2604.2ZM499.7,2532.91H437.277a4.21,4.21,0,1,0,0,8.42H499.7A4.21,4.21,0,1,0,499.7,2532.91Zm0,20.37H437.277a4.215,4.215,0,1,0,0,8.43H499.7A4.215,4.215,0,1,0,499.7,2553.28Zm0,20.38H437.277a4.21,4.21,0,1,0,0,8.42H499.7A4.21,4.21,0,1,0,499.7,2573.66Z" transform="translate(-394 -2483)"/>
</svg>
